# xmcd
#
# Track frame offsets:
#	150
#	19072
#	40180
#	67007
#	86178
#	91914
#	104084
#	113724
#	133849
#	145150
#
# Disc length: 2175 seconds
#
# Revision: 1
# Processed by: cddbd v1.5.2PL0 Copyright (c) Steve Scherf et al.
# Submitted via: audiograbber 1.83.01
#
DISCID=8d087d0a
DTITLE=Shuggie Ottis - Inspiration Information
DYEAR=1900
DGENRE=
TTITLE0=Inspiration Information
TTITLE1=Island Letter
TTITLE2=Sparkle City
TTITLE3=Aht Uh Mi Hed
TTITLE4=Happy House
TTITLE5=Rainy Day
TTITLE6=XL - 30
TTITLE7=Pling!
TTITLE8=Not Available
TTITLE9=Strawberry Letter 23
EXTD=
EXTT0=
EXTT1=
EXTT2=
EXTT3=
EXTT4=
EXTT5=
EXTT6=
EXTT7=
EXTT8=
EXTT9=
PLAYORDER=
